<?xml version="1.0" encoding="UTF-8" standalone="no"?>
<svg
   width="185.20833mm"
   height="185.20833mm"
   viewBox="0 0 185.20833 185.20833"
   version="1.1"
   id="svg20796"
   inkscape:version="1.1.1 (c3084ef, 2021-09-22)"
   sodipodi:docname="Logo Fe패de패ration Se패ne패galaise Football.svg"
   xmlns:inkscape="http://www.inkscape.org/namespaces/inkscape"
   xmlns:sodipodi="http://sodipodi.sourceforge.net/DTD/sodipodi-0.dtd"
   xmlns="http://www.w3.org/2000/svg"
   xmlns:svg="http://www.w3.org/2000/svg"
   xmlns:rdf="http://www.w3.org/1999/02/22-rdf-syntax-ns#"
   xmlns:cc="http://creativecommons.org/ns#"
   xmlns:dc="http://purl.org/dc/elements/1.1/">
  <defs
     id="defs20790" />
  <sodipodi:namedview
     id="base"
     pagecolor="#ffffff"
     bordercolor="#666666"
     borderopacity="1.0"
     inkscape:pageopacity="0.0"
     inkscape:pageshadow="2"
     inkscape:zoom="0.60193585"
     inkscape:cx="156.99347"
     inkscape:cy="157.82413"
     inkscape:document-units="mm"
     inkscape:current-layer="layer1"
     inkscape:document-rotation="0"
     showgrid="false"
     inkscape:pagecheckerboard="true"
     inkscape:window-width="1440"
     inkscape:window-height="900"
     inkscape:window-x="0"
     inkscape:window-y="0"
     inkscape:window-maximized="0" />
  <metadata
     id="metadata20793">
    <rdf:RDF>
      <cc:Work
         rdf:about="">
        <dc:format>image/svg+xml</dc:format>
        <dc:type
           rdf:resource="http://purl.org/dc/dcmitype/StillImage" />
        <dc:title />
      </cc:Work>
    </rdf:RDF>
  </metadata>
  <g
     inkscape:label="Logo"
     inkscape:groupmode="layer"
     id="layer1"
     transform="translate(-88.738281,-152.99415)">
    <path
       style="clip-rule:nonzero;fill:none;stroke:#14a335;stroke-width:0.908211;stroke-linecap:butt;stroke-linejoin:miter;stroke-miterlimit:10;stroke-opacity:1"
       d="M 273.49438,245.58659"
       id="path1296" />
    <g
       id="g1845"
       transform="matrix(2.2152141,0,0,2.2152141,-107.83601,-185.92063)">
      <path
         style="color:#000000;fill:#14a335;stroke-miterlimit:10;-inkscape-stroke:none"
         d="m 130.53711,152.99414 c -23.08505,0 -41.798829,18.71377 -41.798829,41.79883 0,23.08507 18.713709,41.80859 41.798829,41.80859 23.08512,0 41.80859,-18.72345 41.80859,-41.80859 0,-23.08513 -18.72354,-41.79883 -41.80859,-41.79883 z"
         id="path1294" />
      <path
         style="color:#000000;fill:#ffffff;stroke-miterlimit:10;-inkscape-stroke:none"
         d="m 130.53711,153.4043 c 22.86354,0 41.40039,18.52519 41.40039,41.38867 0,22.86349 -18.53692,41.40039 -41.40039,41.40039 -22.86347,0 -41.388673,-18.53683 -41.388673,-41.40039 0,-22.86355 18.525133,-41.38867 41.388673,-41.38867 z"
         id="path1546" />
      <path
         style="color:#000000;fill:#14a335;stroke-miterlimit:10;-inkscape-stroke:none"
         d="m 130.53711,163.39844 c -17.33576,0 -31.394532,14.05875 -31.394532,31.39453 0,17.34716 14.058772,31.40625 31.394532,31.40625 17.34721,0 31.40625,-14.05909 31.40625,-31.40625 0,-17.33578 -14.05904,-31.39453 -31.40625,-31.39453 z"
         id="path12854" />
      <path
         style="color:#000000;fill:#ffffff;stroke-miterlimit:10;-inkscape-stroke:none"
         d="m 130.53711,163.80859 c 17.12577,0 30.99609,13.87019 30.99609,30.98438 0,17.12572 -13.87032,30.99609 -30.99609,30.99609 -17.11417,0 -30.984376,-13.87037 -30.984376,-30.99609 0,-17.11419 13.870206,-30.98438 30.984376,-30.98438 z"
         id="path1722" />
    </g>
    <g
       id="g1872"
       transform="matrix(2.2152141,0,0,2.2152141,-107.83601,-185.92063)">
      <path
         style="fill:#11a335;fill-opacity:1;fill-rule:nonzero;stroke:none;stroke-width:2.94956"
         d="m 109.60162,164.23692 1.60152,0.4724 c 0.17282,0.0502 0.31111,0.18478 0.38017,0.34531 l 0.58761,1.56692 0.93326,-1.38256 c 0.10367,-0.14967 0.2765,-0.24164 0.44932,-0.24164 l 1.67065,-0.0836 -1.01392,-1.3135 c -0.11521,-0.14966 -0.14982,-0.33444 -0.10367,-0.50668 l 0.44932,-1.61308 -1.57848,0.56437 c -0.16128,0.0585 -0.35718,0.0334 -0.50692,-0.0585 l -1.39413,-0.93325 0.046,1.68214 c 0.0117,0.17307 -0.0694,0.34531 -0.20744,0.46069 z m 0,0"
         id="path12858" />
      <path
         style="fill:#11a335;fill-opacity:1;fill-rule:nonzero;stroke:none;stroke-width:2.94956"
         d="m 165.48199,196.3365 c 0.1382,0 0.27649,0.0585 0.38017,0.13795 l 1.26739,1.10607 0.16128,-1.6706 c 0.0117,-0.17307 0.11521,-0.34531 0.26496,-0.42641 l 1.44022,-0.86419 -1.53238,-0.67974 c -0.16129,-0.0669 -0.28804,-0.21906 -0.32265,-0.39213 l -0.38026,-1.63608 -1.1176,1.25582 c -0.11522,0.13796 -0.28804,0.20735 -0.4724,0.18478 l -1.67065,-0.13796 0.84109,1.44018 c 0.0922,0.16136 0.10367,0.34531 0.0343,0.51838 l -0.64522,1.54393 1.63609,-0.36872 c 0.0343,0 0.0803,-0.008 0.11522,-0.008"
         id="path12860" />
      <path
         style="clip-rule:nonzero;fill:#ffdc00;fill-opacity:1;fill-rule:nonzero;stroke:none;stroke-width:2.94956"
         d="m 115.2127,160.04298 c 0.1959,-0.0669 0.41479,-0.0334 0.57608,0.11538 0.16128,0.13796 0.21889,0.36872 0.16128,0.57607 l -0.66829,2.39642 1.52086,1.97026 c 0.0803,0.092 0.11522,0.20735 0.11522,0.33444 4.14781,-1.93565 8.75651,-3.01872 13.61868,-3.01872 16.91389,0 30.83213,13.0426 32.24931,29.58777 l 2.20064,0.19565 1.64761,-1.86659 c 0.14982,-0.16137 0.36871,-0.21906 0.57607,-0.17307 0.19589,0.0585 0.36871,0.21906 0.41478,0.42641 l 0.56453,2.41949 2.26978,1.00248 c 0.046,0.0251 0.0803,0.0418 0.11521,0.0669 -0.36871,-21.75305 -18.1928,-39.33515 -40.03799,-39.33515 -7.02825,0 -13.6302,1.82035 -19.37954,5.0119 l 1.70522,1.12914 z m 0,0"
         id="path12864" />
      <path
         style="fill:#11a335;fill-opacity:1;fill-rule:nonzero;stroke:none;stroke-width:2.94956"
         d="m 110.05096,226.54641 -1.86651,-1.64761 c -0.16129,-0.13796 -0.23043,-0.36872 -0.17282,-0.56437 0.046,-0.20735 0.21889,-0.36872 0.42632,-0.4147 l 2.41955,-0.57607 0.94478,-2.17761 c -8.23803,-5.87609 -13.630202,-15.50825 -13.630202,-26.38478 0,-10.87652 5.403692,-20.52022 13.653242,-26.38477 -0.14983,-0.0585 -0.2765,-0.18477 -0.34564,-0.33444 l -0.86413,-2.33889 -2.39652,-0.69145 c -0.1959,-0.0669 -0.35718,-0.23077 -0.39171,-0.44899 -0.046,-0.19564 0.0343,-0.4147 0.19589,-0.55349 l 1.95869,-1.54385 -0.0577,-2.01633 c -11.636943,7.01677 -19.425623,19.77133 -19.425623,34.31171 0,14.51739 7.754124,27.24888 19.344973,34.2771 0,-0.008 0,-0.0251 0,-0.0334 z m 0,0"
         id="path12868" />
      <path
         style="fill:#e63f23;fill-opacity:1;fill-rule:nonzero;stroke:none;stroke-width:2.94956"
         d="m 168.39699,196.30188 -0.25351,2.47719 c -0.0117,0.21906 -0.14983,0.403 -0.34564,0.47239 -0.0694,0.0334 -0.14975,0.0502 -0.21889,0.0502 -0.13821,0 -0.26496,-0.0502 -0.36872,-0.13796 l -1.87804,-1.63607 -2.4426,0.54179 c -0.046,0.008 -0.10368,0.008 -0.14983,0.008 -1.64761,16.30321 -15.46216,29.06931 -32.20323,29.06931 -4.80456,0 -9.36717,-1.04855 -13.4689,-2.93804 -0.0234,0.0334 -0.0343,0.0669 -0.0577,0.092 l -1.63609,1.88949 0.54154,2.43112 c 0.046,0.20735 -0.0234,0.42641 -0.19589,0.56436 -0.16129,0.12709 -0.38026,0.16137 -0.57607,0.0836 l -2.30434,-0.95624 -2.13152,1.25582 c 5.84151,3.35283 12.61629,5.26548 19.82888,5.26548 22.01803,0 39.94583,-17.85868 40.04952,-39.8537 -0.0226,0.008 -0.0343,0.0334 -0.0577,0.0502 z m 0,0"
         id="path12870" />
      <g
         id="g1290">
        <path
           style="fill:#e63f23;fill-opacity:1;fill-rule:nonzero;stroke:none;stroke-width:2.94956"
           d="m 112.98901,171.77216 c 11.52172,-1.04847 10.80738,3.11086 11.09542,5.61104 4.20543,0.26504 5.17325,3.6524 5.18477,4.26309 0.61069,-0.44982 1.71674,-1.90112 2.16609,-3.57181 -2.14304,0.0251 -3.53717,-1.3941 -3.53717,-3.04171 0,-1.65915 0.64522,-3.9519 3.0763,-3.9519 2.43109,0 3.68695,1.93565 4.7239,4.42429 l 2.08544,-1.16368 -0.1959,-2.97257 2.0163,1.31342 0.93326,-0.10367 c 0,0 -0.0117,-0.95633 -0.0577,-1.68223 -0.79496,-1.17522 -3.44499,-2.12001 -5.15021,-2.53479 0.35718,-0.18478 1.14066,-0.25334 1.86653,-0.25334 5.1502,0 5.53042,5.13865 5.36912,5.97976 0.70282,0.16137 1.72826,0.12709 1.72826,0.12709 0,0 0.36872,-0.86411 0.36872,-2.32736 0,-4.21702 -4.30913,-6.09506 -8.54912,-6.95916 -4.25152,-0.85257 -10.30042,0.55266 -12.66238,2.20069 2.71913,-0.11539 3.73304,1.11752 3.74457,1.80889 -0.62223,-0.28845 -4.50501,-0.53009 -5.48435,-0.403 -0.96782,0.12709 -6.04891,1.31342 -8.72195,3.23753"
           id="path12820" />
        <path
           style="fill:#e63f23;fill-opacity:1;fill-rule:nonzero;stroke:none;stroke-width:2.94956"
           d="m 119.59096,172.8437 c 2.50021,0 2.63847,2.75368 2.54629,4.10172 -1.61303,1.26735 -6.19868,2.28129 -6.19868,4.29753 0,0.403 0.16128,0.76001 0.50693,0.76001 0.34564,0 2.2813,0.0502 2.2813,0.56437 0,0.26504 -0.20743,0.25334 -0.57607,0.43811 -9.15977,4.68933 -12.61629,9.09063 -13.54955,9.80499 0.046,-1.08308 0.17282,-1.88958 0.44932,-2.5924 0.96782,-2.43112 4.11325,-6.37156 4.75847,-7.30481 0.21888,-0.31102 0.36871,-0.79512 -0.36872,-0.79512 -0.74889,0 -1.60152,0.12708 -3.09935,1.79735 -0.0803,-1.00239 0.32257,-2.58086 5.05804,-4.86215 0.64522,-0.31103 0.85261,-0.65717 0.85261,-1.02547 0,-0.36872 -0.31111,-0.73744 -0.31111,-0.73744 -1.38261,0.0502 -2.96108,-0.39129 -3.05326,-0.92171 -0.0234,-0.20735 0.0577,-0.38042 0.0577,-0.38042 0.18436,0.0669 0.28803,0.32273 1.32499,0.0418 1.03696,-0.27675 4.30913,-1.48633 5.38065,-1.91257 1.04848,-0.43811 2.79978,-1.27889 3.94043,-1.27889"
           id="path12822" />
        <path
           style="fill:#e63f23;fill-opacity:1;fill-rule:nonzero;stroke:none;stroke-width:2.94956"
           d="m 129.2692,173.51191 c 0.95631,-0.62206 1.77435,-0.66804 2.24674,-0.66804 0.46085,0 2.18913,0.25333 2.52326,2.68453 l -0.82957,0.0669 -1.64761,1.38265 -0.0234,-1.23282 -0.71436,-0.99094 c 0.49539,-0.16137 0.7259,-0.32274 0.7259,-0.71403 0,-0.403 -0.39171,-0.94479 -2.2813,-0.53008"
           id="path12824" />
        <path
           style="fill:#e63f23;fill-opacity:1;fill-rule:nonzero;stroke:none;stroke-width:2.94956"
           d="m 145.76832,171.42652 c 0.31111,0.62205 0.36872,0.85256 0.36872,1.26735 0,0.4147 -0.49547,1.22129 -1.37109,1.44026 0.2535,-0.62206 0.35718,-1.46334 0.3341,-1.83197 0.18436,-0.10368 0.44932,-0.403 0.66829,-0.87564"
           id="path12826" />
        <path
           style="fill:#ffdc00;fill-opacity:1;fill-rule:nonzero;stroke:none;stroke-width:2.94956"
           d="m 131.43529,181.19688 c 0.73735,0.4724 2.07391,1.90112 2.07391,3.12241 0,0.61035 -0.10368,0.96786 -0.31111,1.20983 -0.1959,0.22992 -3.39891,3.81368 -3.64087,6.72865 0.92174,1.22128 6.44064,10.86499 6.44064,15.02431 0,4.14788 -1.76282,8.9755 -4.11325,9.60917 0.51847,-1.64761 0.61069,-3.30676 0.61069,-5.19633 0,-4.04412 -3.21457,-9.01003 -9.51695,-10.57696 1.64761,-1.11761 3.49109,-3.30676 3.49109,-6.33694 0,-3.03018 -2.12,-5.58805 -2.12,-5.58805 3.29521,-0.77171 6.34847,-4.52804 7.08586,-7.99609"
           id="path12828" />
        <path
           style="fill:#ffdc00;fill-opacity:1;fill-rule:nonzero;stroke:none;stroke-width:2.94956"
           d="m 123.37009,178.12064 c 1.10608,0 3.61781,0.50667 4.66629,3.203 -0.40325,1.76282 -3.98652,5.31155 -4.90825,6.23326 -0.92175,0.92171 -6.7287,7.37395 -7.10891,14.73628 -0.35718,6.86694 2.07391,14.86303 3.11087,18.25039 -1.70522,-2.12 -6.08348,-8.51455 -6.60196,-9.17122 -0.50692,-0.64547 -2.08543,-3.09941 -4.68933,-4.58565 -0.14975,0.66804 0.34564,3.23753 2.99565,4.67779 -5.47282,-1.37112 -7.32782,-5.95677 -8.14586,-8.00763 0,-4.94283 2.93804,-10.33499 3.74455,-11.46413 3.83674,-5.34609 12.75456,-8.91772 14.87456,-9.27499 l -0.11522,0.49581 c -1.02544,0.42641 -7.80021,4.97736 -8.67586,5.78394 -0.87565,0.79513 -3.66391,4.65472 -3.66391,6.25626 0,0.44899 0.046,0.99086 0.50693,0.99086 0.47239,0 2.16608,-0.14966 3.62934,-3.43343 0.87565,-1.79744 2.37348,-3.30676 2.37348,-3.30676 2.09695,-1.20975 5.19629,-3.18001 6.44064,-4.13634 1.25587,-0.95624 2.31587,-1.82043 2.31587,-2.99564 0,-1.18668 -1.12913,-2.43104 -6.34847,-2.35044 1.17522,-0.95624 3.6063,-1.90103 5.59956,-1.90103"
           id="path12830" />
        <path
           style="fill:#ffdc00;fill-opacity:1;fill-rule:nonzero;stroke:none;stroke-width:2.94956"
           d="m 124.82182,194.65427 c -1.23283,0.95633 -2.62696,2.52326 -2.62696,4.50497 0,1.9818 0.94479,6.34848 6.47521,6.49831 1.02544,1.40564 3.11087,4.51651 1.69369,9.39019 -0.82957,-1.09453 -2.38499,-4.03257 -2.94955,-4.70086 -0.71436,-0.85257 -2.46565,-2.78822 -4.18239,-1.98172 1.34804,1.60146 5.04652,6.35994 5.41521,6.9937 0.38017,0.63376 2.21217,3.9865 1.6937,6.11805 l -3.74457,-4.3207 c -0.91021,-1.56693 -3.1339,-3.60625 -6.60195,-4.56258 -3.73303,-3.73308 -1.62456,-18.91868 4.82761,-17.93936"
           id="path12832" />
        <path
           style="fill:#ffdc00;fill-opacity:1;fill-rule:nonzero;stroke:none;stroke-width:2.94956"
           d="m 125.19052,216.55707 0.73735,0.53008 1.4863,3.08787 -1.26738,1.6706 -1.03696,-1.73974 z m 0,0"
           id="path12834" />
        <path
           style="fill:#ffdc00;fill-opacity:1;fill-rule:nonzero;stroke:none;stroke-width:2.94956"
           d="m 123.88856,215.13988 -1.83196,-0.46069 c -0.23042,3.69847 2.20065,9.13678 5.35761,12.10935 -2.09696,-4.35522 -2.915,-6.41762 -3.52565,-11.64849"
           id="path12836" />
        <path
           style="fill:#006330;fill-opacity:1;fill-rule:nonzero;stroke:none;stroke-width:2.94956"
           d="m 146.89744,175.81627 c 0.44932,0 1.29044,0.91018 1.38261,1.04847 l 0.10368,1.23282 1.87804,0.44898 v 0.27675 l -5.42674,-0.0334 -1.07151,-0.16137 c 0.0922,-0.34531 0.79496,-1.30197 1.08303,-1.56701 l 1.37109,1.03701 h 0.88718 v -0.77172 l -0.84109,-0.8641 c -0.10368,-0.20735 0.1959,-0.64547 0.63368,-0.64547"
           id="path12838" />
        <path
           style="fill:#006330;fill-opacity:1;fill-rule:nonzero;stroke:none;stroke-width:2.94956"
           d="m 144.04006,177.32559 c -0.20744,0.27675 -0.71436,1.2559 -0.71436,1.2559 l -1.04848,-0.14966 0.4724,-0.71403 z m 0,0"
           id="path12840" />
        <path
           style="fill:#006330;fill-opacity:1;fill-rule:nonzero;stroke:none;stroke-width:2.94956"
           d="m 142.19658,177.87867 -0.36872,0.4841 -1.44021,-0.32273 0.8526,-1.11761 c 0.0577,0.38042 0.0694,1.00239 0.95631,0.95632"
           id="path12842" />
        <path
           style="fill:#006330;fill-opacity:1;fill-rule:nonzero;stroke:none;stroke-width:2.94956"
           d="m 136.86202,176.61123 c -2.31586,3.00719 -1.60152,4.83916 2.24674,7.06284 -0.81804,0.403 -3.15696,1.65915 -2.915,5.23087 0.23043,3.57172 2.52326,4.00958 2.52326,4.00958 0.86413,-0.21906 7.07434,-0.91026 8.89477,0.59948 0.42633,1.15214 2.05087,3.46805 5.34609,3.46805 1.7513,0 3.08782,-2.0624 3.08782,-2.0624 l 0.0922,3.30667 -0.48394,0.22993 -1.10608,-0.16137 -1.63609,0.95633 -0.67974,-0.20735 c -1.1637,-0.76001 -3.73304,-1.55547 -4.2976,-1.55547 -0.57607,0 -2.26979,0.42641 -2.26979,0.42641 1.57849,0.79512 3.73304,4.07864 3.73304,6.64805 0,2.56932 -0.78351,9.65515 -4.47042,9.27498 0.32256,-0.35701 0.91021,-0.87564 0.91021,-2.05086 0,-1.17522 -0.74889,-1.23282 -0.74889,-1.23282 -0.51846,0.16136 -3.76761,3.18 -6.65956,5.80693 -2.40804,2.17762 -4.58564,4.04412 -4.58564,4.04412 0,0 4.0326,-5.56497 4.0326,-12.19003 0,-1.65907 -0.36872,-7.9384 -5.11565,-12.73149 3.82521,0.79513 10.19673,10.91114 12.28217,10.91114 0.26495,0 0.67974,-0.32274 0.65675,-0.84112 -0.0343,-0.50667 -0.44932,-2.76513 -0.44932,-2.76513 -0.89869,-0.87565 -5.41521,-4.50497 -6.5213,-4.9889 -3.95195,-1.75129 -7.36238,-4.45891 -7.36238,-6.63652 0,-1.20975 0.40325,-2.81129 0.70283,-3.26069 0.31111,-0.46069 3.00717,-4.56258 3.00717,-4.56258 l -0.11522,-1.02547 c -0.71436,-0.092 -1.34804,-1.12906 -2.10847,-2.74214 0.39171,-0.85257 2.32738,-2.44258 4.00955,-2.96104"
           id="path12844" />
        <path
           style="fill:#006330;fill-opacity:1;fill-rule:nonzero;stroke:none;stroke-width:2.94956"
           d="m 157.09417,181.86518 c 0.2535,0.16136 0.76043,1.10607 0.73735,1.50932 -0.0234,0.403 -0.24196,1.27889 -1.23282,2.46564 -0.0694,-0.10367 -0.14983,-0.24163 -0.14983,-0.36871 v -0.93334 c -0.50693,-0.74914 -1.52087,-1.71667 -1.52087,-1.71667 l 0.11522,-0.26504 c 0.51846,0.25333 0.87565,0.19564 1.52086,0.16136 0.63368,-0.0334 1.03696,-0.10367 0.53001,-0.85256"
           id="path12846" />
        <path
           style="fill:#006330;fill-opacity:1;fill-rule:nonzero;stroke:none;stroke-width:2.94956"
           d="m 149.40918,182.14167 c -1.00239,0.28846 -2.55783,1.17522 -2.55783,3.24916 0,1.10607 0.7489,2.54624 2.90348,2.54624 0.56453,0 1.39413,-0.24163 1.70522,-0.38042 -0.67975,-0.0585 -2.385,-0.46069 -2.385,-1.10607 0,-0.65634 0.49547,-0.66804 0.49547,-0.66804 0.35718,0 0.35718,0.19564 0.92173,0.19564 0.56453,0 0.89871,-0.13795 1.15218,-0.4958 -1.03695,0.0585 -2.77674,-0.32273 -2.77674,-1.62454 0,-0.79512 0.2765,-1.27897 0.54154,-1.71675"
           id="path12848" />
        <path
           style="fill:#006330;fill-opacity:1;fill-rule:nonzero;stroke:none;stroke-width:2.94956"
           d="m 152.01309,189.49255 c -0.26496,0.59948 -0.71436,1.37111 -1.60152,1.41718 -0.87565,0.0418 -3.64087,0.0585 -3.95195,0.0585 -0.31111,0 -0.84109,0.11538 -0.84109,0.11538 l 1.30196,-1.38257 c 0,0 3.32978,-0.0251 3.79064,-0.0585 0.46086,-0.0251 1.0024,-0.0585 1.30196,-0.14966"
           id="path12850" />
        <path
           style="fill:#006330;fill-opacity:1;fill-rule:nonzero;stroke:none;stroke-width:2.94956"
           d="m 155.38896,187.48776 -2.28131,2.22376 c 0.26496,0.20735 0.82958,0.95624 0.51847,1.6706 h 1.30195 c 0.41479,-0.73743 0.93327,-1.79735 0.93327,-2.33889 -0.23043,-0.0585 -0.71436,0.28845 -0.71436,0.28845 l -0.0234,-0.64546 0.20743,-0.26505 z m 0,0"
           id="path12852" />
        <path
           style="fill:#11a335;fill-opacity:1;fill-rule:nonzero;stroke:none;stroke-width:2.94956"
           d="m 109.76292,224.77205 1.25588,1.10607 c 0.1382,0.12708 0.20743,0.29932 0.19589,0.4841 l -0.14982,1.65915 1.45173,-0.84112 c 0.14982,-0.092 0.3341,-0.10367 0.50692,-0.0334 l 1.54392,0.64547 -0.36872,-1.63608 c -0.0343,-0.17307 0.0117,-0.35701 0.12675,-0.4958 l 1.09456,-1.26736 -1.67065,-0.16136 c -0.17282,-0.0251 -0.33411,-0.11539 -0.42633,-0.27675 l -0.86413,-1.42872 -0.66829,1.53239 c -0.0803,0.17308 -0.21889,0.28762 -0.39171,0.33444 z m 0,0"
           id="path12862" />
        <path
           style="color:#000000;fill:#ffffff;stroke-miterlimit:10;-inkscape-stroke:none"
           d="m 126.22656,165.10352 c -0.0902,0.006 -0.12777,0.0277 -0.20703,0.0566 -0.0793,0.0289 -0.17846,0.0674 -0.29687,0.11718 -0.23684,0.0997 -0.54954,0.24093 -0.91407,0.40821 -0.72904,0.33455 -1.66239,0.77877 -2.58593,1.22851 -0.92355,0.44975 -1.8381,0.90322 -2.52539,1.25781 -0.34365,0.1773 -0.63018,0.33007 -0.83594,0.44532 -0.10288,0.0576 -0.18406,0.10671 -0.2461,0.14648 -0.031,0.0199 -0.0576,0.0355 -0.082,0.0547 -0.0122,0.01 -0.0246,0.0201 -0.0391,0.0352 -0.007,0.008 -0.014,0.016 -0.0234,0.0293 -0.005,0.007 -0.0102,0.0154 -0.0156,0.0254 -0.005,0.008 -0.0111,0.0246 -0.0137,0.0312 -2.1e-4,6.1e-4 2.1e-4,0.001 0,0.002 -1.09949,3.18254 0.74091,7.13944 3.69531,10.96289 l 0.0606,0.0801 H 141.125 v -0.41015 h -18.71875 c -2.87113,-3.73825 -4.5661,-7.53806 -3.58203,-10.45899 0.005,-0.003 0.006,-0.004 0.0117,-0.008 0.0493,-0.0316 0.12752,-0.0773 0.22656,-0.13281 0.19809,-0.11095 0.48286,-0.26138 0.82422,-0.4375 0.68272,-0.35223 1.59229,-0.80522 2.51367,-1.25391 0.92138,-0.44869 1.85364,-0.8941 2.57813,-1.22656 0.36224,-0.16623 0.67268,-0.30374 0.90234,-0.40039 0.11483,-0.0483 0.21068,-0.0863 0.2793,-0.11133 0.0686,-0.025 0.13299,-0.0339 0.0918,-0.0312 6.6271,-0.28671 11.88562,0.40704 15.00586,1.6211 0.93173,0.36105 1.65448,0.4614 3.32031,2.02148 0.007,0.0627 0.10938,1.03826 0.10938,2.61523 0,1.60127 -0.25976,2.03664 -0.46289,2.68164 l 0.39062,0.12305 c 0.18867,-0.59909 0.48243,-1.1569 0.48243,-2.80469 0,-1.6457 -0.11719,-2.74023 -0.11719,-2.74023 l -0.008,-0.0742 -0.0547,-0.0527 c -1.75897,-1.6658 -2.61402,-1.80253 -3.51172,-2.15039 -3.21602,-1.25133 -8.5089,-1.93924 -15.17578,-1.65039 h -0.002 z m -9.00195,4.0996 c -0.1443,0.34056 -0.31658,0.75087 -0.44141,1.13282 -0.0934,0.28568 -0.10668,0.5222 -0.10742,0.75976 h -3.95117 v 0.40821 h 4.37891 l -0.0684,-0.25586 c -0.0251,-0.0947 0.0215,-0.4268 0.13867,-0.78516 0.11712,-0.35836 0.28401,-0.76041 0.42773,-1.09961 z m -0.75781,3.98438 -0.36524,0.18945 c 0.37303,0.71737 1.15136,2.25026 2.00977,3.77344 0.85841,1.52318 1.78258,3.02777 2.52344,3.74414 l 0.0488,0.0469 2.20118,0.31054 19.68164,-0.13867 -0.002,-0.41016 -19.65234,0.13868 -2.02148,-0.28516 c -0.65235,-0.64454 -1.58135,-2.1125 -2.42383,-3.60742 -0.85257,-1.51281 -1.62414,-3.03892 -2,-3.76172 z m 6.12109,8.68945 -3.07812,0.36328 -1.18946,4.39649 -0.66601,0.95312 -3.33008,10.72657 c -0.0849,0.081 -0.28258,0.20698 -0.54883,0.32812 -0.27866,0.12679 -0.61968,0.25553 -0.96289,0.37305 -0.68642,0.23503 -1.38253,0.42586 -1.63867,0.49414 l -0.002,0.002 c -0.25714,0.07 -1.1487,0.31878 -2.04102,0.58594 -0.44616,0.13358 -0.89126,0.27103 -1.25781,0.39258 -0.36655,0.12154 -0.64102,0.21914 -0.80078,0.30664 -0.40767,0.21818 -0.92336,0.40882 -1.03125,0.44922 l -3.36133,-2.75586 -0.25977,0.3164 3.54688,2.90821 0.11133,-0.0391 c 0,0 0.69381,-0.25373 1.18945,-0.51953 h 0.002 c 0.0822,-0.045 0.37238,-0.156 0.73242,-0.27539 0.36004,-0.11939 0.8022,-0.25772 1.2461,-0.39062 0.88779,-0.26581 1.78146,-0.51601 2.03125,-0.58399 0.26233,-0.0699 0.96407,-0.26355 1.66601,-0.5039 0.35098,-0.12018 0.70185,-0.25107 1,-0.38672 0.29815,-0.13565 0.54128,-0.26605 0.70117,-0.4336 l 0.0332,-0.0332 3.3457,-10.77734 0.67188,-0.95899 1.13671,-4.19922 2.38282,-0.28125 0.0996,1.08789 -2.05274,2.06446 -0.0156,0.0469 c 0,0 -1.63597,5.05883 -2.14258,6.61328 -0.51671,1.56153 -1.44206,4.12528 -1.89453,5.16602 -0.46231,1.06326 -0.70508,1.70312 -0.70508,1.70312 l -0.0625,0.16211 0.15039,0.0879 c 0,0 1.7268,1.01282 2.66992,1.57618 0.44775,0.26758 1.3617,0.94805 2.39649,1.73242 1.03438,0.78406 2.19903,1.67769 3.1875,2.39453 1.9675,1.44664 4.37191,2.97338 6.47461,3.82617 l 0.0312,0.0137 0.67382,0.0391 0.0547,-0.0352 c 0,0 1.83334,-1.12931 2.70703,-1.6582 0.84644,-0.51232 2.92774,-1.47461 2.92774,-1.47461 l 0.008,-0.004 0.006,-0.004 c 0,0 1.21075,-0.66693 2.5,-1.38281 1.28824,-0.71532 2.6426,-1.47147 2.97656,-1.67187 l 0.002,-0.002 c 0.35992,-0.20983 0.98178,-0.72741 1.61524,-1.28711 0.6343,-0.56044 1.25842,-1.14844 1.56445,-1.47851 l 0.0879,-0.0957 -0.0488,-0.1211 c -0.77979,-1.94381 -1.96347,-6.6062 -2.09961,-7.16211 -0.11206,-0.45735 -0.16959,-0.8236 -0.19726,-0.98828 l 1.16211,-0.17187 1.24023,4.67578 0.70899,3.86523 2.51758,1.15039 0.42968,0.0742 1.4668,1.96485 c -0.0971,-0.0236 -0.0555,-0.0271 -0.1875,-0.0508 -0.56097,-0.10075 -1.46972,-0.19921 -2.89063,-0.19921 -2.91707,0 -6.45351,1.97001 -7.32617,2.4707 h -0.002 -0.002 c -0.86556,0.51463 -3.47461,2.19336 -3.47461,2.19336 l -6.19141,3.70117 -0.0234,0.0781 c -0.24135,0.82067 -0.55175,2.70185 -0.36328,4.49219 l 0.40625,-0.043 c -0.17748,-1.68598 0.12695,-3.49888 0.34571,-4.26757 l 6.04492,-3.61329 0.004,-0.002 c 0,0 2.61753,-1.68313 3.45899,-2.18359 l 0.002,-0.002 c 0.85745,-0.49188 4.39365,-2.41406 7.12109,-2.41406 1.40192,0 2.28765,0.0981 2.81836,0.19336 0.53072,0.0953 0.6836,0.17578 0.6836,0.17578 l 0.78125,0.39844 -2.43946,-3.26953 -0.53906,-0.0918 -2.27539,-1.03906 -0.67383,-3.67188 -1.33984,-5.04687 -1.94141,0.28711 0.0332,0.20508 c 0,0 0.10484,0.65011 0.24609,1.22656 0.13759,0.56182 1.2686,5.0015 2.07617,7.07812 -0.30013,0.3156 -0.86059,0.84779 -1.45508,1.37305 -0.62732,0.55428 -1.27677,1.08471 -1.55078,1.24414 H 142 141.998 c -0.30104,0.18073 -1.67806,0.95042 -2.9668,1.66602 -1.28241,0.71208 -2.47452,1.37043 -2.48633,1.37695 0,0 -2.06389,0.95037 -2.96875,1.49805 -0.85921,0.52012 -2.5783,1.57937 -2.65234,1.625 l -0.47071,-0.0273 c -2.04045,-0.83127 -4.42007,-2.33489 -6.36328,-3.76367 v -0.002 c -0.98149,-0.71174 -2.1454,-1.60321 -3.18164,-2.38867 -1.03623,-0.78547 -1.93656,-1.46078 -2.43359,-1.75782 -0.89173,-0.53266 -2.33915,-1.38045 -2.51953,-1.48632 0.0407,-0.10547 0.2166,-0.57011 0.63281,-1.52735 0.46908,-1.07893 1.38787,-3.63048 1.9082,-5.20312 0.50362,-1.54526 2.10401,-6.49546 2.12696,-6.56641 l 2.11914,-2.13086 z m -19.99414,19.23633 -0.27148,0.30859 c 0.6008,0.52568 1.04665,1.15669 1.60546,1.94532 -0.017,0.0952 -0.27016,1.53619 -0.66992,2.5625 l 0.38282,0.14843 c 0.43981,-1.12916 0.71289,-2.7246 0.71289,-2.7246 l 0.0156,-0.084 -0.0508,-0.0703 c -0.58732,-0.82899 -1.05648,-1.50137 -1.72461,-2.08594 z m 9.57813,0.25977 c -2.69464,0 -5.42176,1.75255 -6.33399,2.43945 l -0.0469,0.0352 -0.0215,0.0547 c 0,0 -0.8533,2.23497 -1.41992,3.88868 l 0.38867,0.13281 c 0.55334,-1.61496 1.36378,-3.74208 1.39063,-3.8125 0.88817,-0.66246 3.55329,-2.32813 6.04297,-2.32813 1.29076,0 2.46181,0.10375 3.98046,0.71094 1.51866,0.60719 3.38558,1.72507 6.02149,3.76367 2.6483,2.04824 4.31439,3.17841 5.32422,3.79883 0.50491,0.31021 0.84503,0.4932 1.0625,0.59961 0.12106,0.0592 0.12821,0.0571 0.18164,0.0781 v 9.93555 l -2.92578,1.77539 -2.01172,1.41016 0.23633,0.33594 2,-1.40235 3.11132,-1.88867 v -10.45117 l -0.14648,-0.0449 c 0,0 -0.061,-0.018 -0.26367,-0.11719 -0.20272,-0.0992 -0.53326,-0.27532 -1.0293,-0.58008 -0.99207,-0.60951 -2.6489,-1.7315 -5.28906,-3.77344 -2.65256,-2.05149 -4.5471,-3.19177 -6.11914,-3.82031 -1.57205,-0.62854 -2.81967,-0.74023 -4.13281,-0.74023 z m 14.43945,22.51953 -1.29492,1.54687 1.86523,-0.29101 -0.0645,-0.40625 -0.78711,0.12304 0.5957,-0.71093 z"
           id="path12872" />
      </g>
    </g>
    <g
       id="g1037"
       transform="matrix(2.2152141,0,0,2.2152141,-107.83601,-185.92063)">
      <g
         id="g989">
        <path
           style="fill:#ffdc00;fill-opacity:1;fill-rule:nonzero;stroke:none;stroke-width:2.94956"
           d="m 103.01119,220.76255 -2.81129,-3.3413 0.76042,-0.65633 1.99327,2.37343 0.59914,-0.50668 -1.90109,-2.25829 0.74889,-0.62206 1.90109,2.2583 1.09456,-0.9218 0.82958,0.9794 z m 0,0"
           id="path12874" />
        <path
           style="fill:#ffdc00;fill-opacity:1;fill-rule:nonzero;stroke:none;stroke-width:2.94956"
           d="m 99.450979,216.39578 -2.384998,-3.91736 0.829575,-0.50667 1.716739,2.81137 0.576075,-0.34614 -1.624573,-2.673 0.737353,-0.44982 1.62457,2.67308 0.57607,-0.34531 -1.751305,-2.89197 0.852605,-0.51838 2.43109,3.97497 z m -2.454127,-1.20983 -0.737353,-1.20975 1.624569,0.46069 0.472394,0.78342 z m 0,0"
           id="path12876" />
        <path
           style="fill:#ffdc00;fill-opacity:1;fill-rule:nonzero;stroke:none;stroke-width:2.94956"
           d="m 98.805763,208.83756 -0.829574,-2.12001 c -0.195898,-0.51838 -0.426326,-0.65717 -0.979345,-0.43811 l -0.530001,0.20735 c -0.553078,0.21906 -0.622139,0.47239 -0.414788,0.99086 l 0.829575,2.12 z m -2.419562,2.33889 -1.428696,-3.60633 c -0.460856,-1.19821 -0.241966,-1.77437 0.725899,-2.15454 l 1.186738,-0.46069 c 0.967823,-0.38042 1.520867,-0.11538 1.993253,1.083 l 1.417175,3.60633 z m 0,0"
           id="path12878" />
        <path
           style="fill:#ffdc00;fill-opacity:1;fill-rule:nonzero;stroke:none;stroke-width:2.94956"
           d="m 94.001203,204.65515 -0.921737,-4.49351 0.94478,-0.19565 0.668292,3.23762 0.656753,-0.13796 -0.622222,-3.06479 0.852609,-0.17308 0.622139,3.0648 0.656753,-0.13796 -0.679746,-3.30676 0.990866,-0.19565 0.933259,4.56258 z m -1.912603,-1.97026 -0.276497,-1.38257 1.371081,0.97932 0.184359,0.89872 z m 0,0"
           id="path12880" />
        <path
           style="fill:#ffdc00;fill-opacity:1;fill-rule:nonzero;stroke:none;stroke-width:2.94956"
           d="m 94.899898,197.41949 -0.08026,-2.12 c -0.01171,-0.34531 -0.149745,-0.4724 -0.449318,-0.46069 h -0.138207 c -0.368718,0.0251 -0.437864,0.20735 -0.414787,0.61035 l 0.0694,2.01624 z m -2.004783,1.35958 -0.149745,-3.87129 c -0.03428,-0.99086 0.449318,-1.2789 1.19826,-1.30197 l 0.264959,-0.008 c 0.564532,-0.0251 0.898694,0.092 1.060002,0.67974 h 0.01171 c 0.05769,-0.39213 0.207352,-0.71402 0.898694,-0.73744 l 0.714361,-0.0251 0.04599,1.27889 -0.506925,0.0251 c -0.437863,0.008 -0.57607,0.14966 -0.564532,0.54179 l 0.08026,2.02787 1.083038,-0.0502 0.04599,1.29043 z m 0,0"
           id="path12882" />
        <path
           style="fill:#ffdc00;fill-opacity:1;fill-rule:nonzero;stroke:none;stroke-width:2.94956"
           d="m 95.545114,190.7023 0.230428,-1.63599 -1.682176,0.61035 z m -2.523255,-0.33444 0.230428,-1.65915 4.470431,-1.70514 -0.195898,1.4171 -0.79496,0.29932 -0.35718,2.58087 0.679746,0.47239 -0.195897,1.41718 z m 0,0"
           id="path12884" />
        <path
           style="fill:#ffdc00;fill-opacity:1;fill-rule:nonzero;stroke:none;stroke-width:2.94956"
           d="m 93.667074,186.2204 1.417175,-4.68933 0.990866,0.29932 -0.518463,1.72822 3.018692,0.91025 -0.368719,1.23283 -3.018692,-0.91026 -0.530001,1.72829 z m 0,0"
           id="path12886" />
        <path
           style="fill:#ffdc00;fill-opacity:1;fill-rule:nonzero;stroke:none;stroke-width:2.94956"
           d="m 95.499028,180.64389 0.506925,-1.18675 3.85978,1.63607 -0.506925,1.18675 z m 0,0"
           id="path12888" />
        <path
           style="fill:#ffdc00;fill-opacity:1;fill-rule:nonzero;stroke:none;stroke-width:2.94956"
           d="m 99.105328,178.29346 c 0.530002,0.31102 0.795044,0.32273 1.094572,-0.20735 l 0.82957,-1.41719 c 0.31111,-0.53008 0.17282,-0.76001 -0.35718,-1.06 l -0.38026,-0.22993 c -0.460853,-0.26504 -0.795041,-0.31103 -1.129128,0.27675 l -0.76043,1.30197 c -0.345642,0.58778 -0.13829,0.85265 0.322566,1.11761 z m -1.394132,0.71402 c -1.059994,-0.61035 -0.967823,-1.35957 -0.380173,-2.35051 l 1.036952,-1.78582 c 0.57607,-1.0024 1.175217,-1.45172 2.235215,-0.84111 l 1.08304,0.63376 c 1.06,0.62205 0.96783,1.35957 0.38017,2.36197 l -1.03695,1.77436 c -0.57607,1.0024 -1.175214,1.45172 -2.235208,0.84111 z m 0,0"
           id="path12890" />
        <path
           style="fill:#ffdc00;fill-opacity:1;fill-rule:nonzero;stroke:none;stroke-width:2.94956"
           d="m 100.14228,172.17541 1.30196,-1.50941 3.89434,0.17307 v -0.008 l -2.30434,-1.99325 0.85261,-0.96787 3.15694,2.74215 -1.30195,1.49787 -3.88282,-0.16137 2.29283,2.00479 -0.84109,0.96787 z m 0,0"
           id="path12892" />
      </g>
      <g
         id="g1001">
        <path
           style="fill:#ffdc00;fill-opacity:1;fill-rule:nonzero;stroke:none;stroke-width:2.94956"
           d="m 164.31829,203.20344 -0.64521,2.18907 c -0.14983,0.53008 -0.0577,0.77171 0.51846,0.94478 l 0.54154,0.16137 c 0.56453,0.16137 0.7835,0 0.93326,-0.53008 l 0.64521,-2.18915 z m 3.35283,-0.35701 -1.09457,3.72146 c -0.35718,1.23282 -0.88717,1.54393 -1.88956,1.2559 l -1.2213,-0.35701 c -0.99087,-0.29933 -1.2674,-0.85265 -0.91022,-2.08539 l 1.09456,-3.72155 z m 0,0"
           id="path12894" />
        <path
           style="fill:#ffdc00;fill-opacity:1;fill-rule:nonzero;stroke:none;stroke-width:2.94956"
           d="m 165.62025,209.30995 -2.0163,4.12471 -0.87565,-0.4264 1.45173,-2.96112 -0.59914,-0.29933 -1.37109,2.81129 -0.78351,-0.38042 1.37108,-2.81129 -0.61068,-0.29932 -1.47477,3.04172 -0.91023,-0.44899 2.05087,-4.1824 z m 0,0"
           id="path12896" />
        <path
           style="fill:#ffdc00;fill-opacity:1;fill-rule:nonzero;stroke:none;stroke-width:2.94956"
           d="m 161.35721,216.93732 -2.76522,3.3989 -0.77196,-0.63376 1.94716,-2.40804 -0.61068,-0.4841 -1.855,2.28129 -0.76043,-0.61035 1.85501,-2.29275 -1.10609,-0.89872 0.8065,-0.99085 z m 0,0"
           id="path12898" />
        <path
           style="fill:#ffdc00;fill-opacity:1;fill-rule:nonzero;stroke:none;stroke-width:2.94956"
           d="m 155.36592,220.29015 c -0.40325,-0.46069 -0.65676,-0.54179 -1.10609,-0.13795 l -1.23283,1.09453 c -0.44931,0.403 -0.39171,0.65717 0.0117,1.11769 l 0.29957,0.33444 c 0.34564,0.39213 0.65676,0.54179 1.1637,0.092 l 1.12913,-1.00239 c 0.49539,-0.44982 0.38017,-0.77172 0.0343,-1.16377 z m 1.55543,-0.24163 c 0.81803,0.91026 0.49547,1.59 -0.36872,2.36197 l -1.54392,1.37103 c -0.86412,0.77172 -1.56695,1.01394 -2.38499,0.092 l -0.82957,-0.93325 c -0.81804,-0.92171 -0.49547,-1.59 0.36871,-2.36197 l 1.53239,-1.37103 c 0.86413,-0.77172 1.57848,-1.01393 2.39652,-0.092 z m 0,0"
           id="path12900" />
        <path
           style="fill:#ffdc00;fill-opacity:1;fill-rule:nonzero;stroke:none;stroke-width:2.94956"
           d="m 150.35396,224.3458 c -0.32256,-0.51838 -0.55308,-0.64546 -1.07151,-0.33444 l -1.40566,0.85266 c -0.51846,0.32273 -0.50692,0.58777 -0.18436,1.10607 l 0.23043,0.38042 c 0.2765,0.44898 0.54154,0.65634 1.12913,0.29932 l 1.27891,-0.78342 c 0.58761,-0.34531 0.53,-0.67974 0.25351,-1.12915 z m 1.56696,0.0502 c 0.63367,1.04846 0.19589,1.65915 -0.78351,2.25821 l -1.76283,1.07154 c -0.99087,0.59948 -1.72826,0.70316 -2.37347,-0.34531 l -0.64522,-1.06 c -0.63367,-1.04846 -0.20743,-1.65915 0.78351,-2.25821 l 1.76282,-1.07154 c 0.99087,-0.59948 1.72826,-0.71403 2.37348,0.33444 z m 0,0"
           id="path12902" />
        <path
           style="fill:#ffdc00;fill-opacity:1;fill-rule:nonzero;stroke:none;stroke-width:2.94956"
           d="m 146.98962,228.98906 -4.55108,1.83197 -0.39171,-0.96786 1.68217,-0.67975 -1.17521,-2.91496 1.18674,-0.4841 1.17521,2.92658 1.68218,-0.67974 z m 0,0"
           id="path12904" />
        <path
           style="fill:#ffdc00;fill-opacity:1;fill-rule:nonzero;stroke:none;stroke-width:2.94956"
           d="m 139.92681,229.77249 -2.2237,0.50667 c -0.23043,0.0502 -0.34564,0.16137 -0.29958,0.39213 0.0577,0.24163 0.20744,0.29932 0.43787,0.24163 l 2.22369,-0.4958 z m -0.34565,-1.48625 -2.24673,0.50668 c -0.26496,0.0669 -0.43786,0.17307 -0.38017,0.40299 0.0577,0.27675 0.2535,0.29933 0.53,0.24164 l 2.24673,-0.50668 z m 1.9587,2.83428 -3.6063,0.80684 c -1.00239,0.23076 -1.54391,0.0669 -1.72826,-0.73744 -0.16128,-0.70316 0.0694,-0.88718 0.39171,-1.07154 v -0.0251 c -0.56453,0.0585 -0.84109,-0.18478 -0.97934,-0.80684 -0.1959,-0.89872 0.28803,-1.19829 1.00238,-1.35957 l 3.99805,-0.91026 z m 0,0"
           id="path12906" />
        <path
           style="fill:#ffdc00;fill-opacity:1;fill-rule:nonzero;stroke:none;stroke-width:2.94956"
           d="m 133.10594,230.00291 -1.63609,0.0669 0.91022,1.5324 z m 0.14983,2.5348 -1.67065,0.0836 -2.50022,-4.07865 1.4287,-0.0669 0.42633,0.72574 2.6039,-0.11539 0.34564,-0.76001 1.4287,-0.0669 z m 0,0"
           id="path12908" />
        <path
           style="fill:#ffdc00;fill-opacity:1;fill-rule:nonzero;stroke:none;stroke-width:2.94956"
           d="m 128.4742,232.61839 -1.27891,-0.13796 0.33411,-3.09932 -2.88043,-0.31103 0.11521,-1.06 4.14783,0.43811 z m 0,0"
           id="path12910" />
        <path
           style="fill:#ffdc00;fill-opacity:1;fill-rule:nonzero;stroke:none;stroke-width:2.94956"
           d="m 123.49682,232.00771 -1.24434,-0.29933 0.73735,-3.03018 -2.8113,-0.67974 0.25351,-1.04847 4.05565,0.99086 z m 0,0"
           id="path12912" />
      </g>
      <g
         id="g977">
        <path
           style="fill:#14a335;fill-opacity:1;fill-rule:nonzero;stroke:none;stroke-width:2.94956"
           d="m 118.9803,161.65606 1.24435,-0.33444 c 0.11521,0.42641 0.29957,0.41471 0.65675,0.32274 l 1.52087,-0.403 c 0.26496,-0.0836 0.53,-0.17307 0.43786,-0.4841 -0.0922,-0.35701 -0.24196,-0.33444 -1.84348,0.092 -1.86651,0.4958 -2.14303,0.32273 -2.40803,-0.66804 -0.1959,-0.73744 -0.2765,-1.31351 1.29043,-1.7283 l 1.72826,-0.47239 c 1.44021,-0.38042 1.70521,0.0669 1.88956,0.78342 l 0.0343,0.12709 -1.24434,0.33444 c -0.0811,-0.29933 -0.14983,-0.41471 -0.71436,-0.26505 l -1.38261,0.36872 c -0.2765,0.0836 -0.43787,0.23077 -0.38026,0.44899 0.0921,0.3453 0.2535,0.31102 1.57848,-0.0502 1.92412,-0.51838 2.40803,-0.51838 2.71912,0.65717 0.29957,1.09454 -0.0234,1.37103 -1.67068,1.8089 l -1.50934,0.40299 c -1.12914,0.29933 -1.63609,0.21906 -1.87804,-0.66804 z m 0,0"
           id="path12914" />
        <path
           style="clip-rule:nonzero;fill:#14a335;fill-opacity:1;fill-rule:nonzero;stroke:none;stroke-width:2.94956"
           d="m 126.65378,155.68784 1.39412,-0.13879 -1.10609,1.26744 -0.91021,0.092 z m -2.15457,1.69368 4.5626,-0.44898 0.10368,0.95632 -3.29522,0.33444 0.0694,0.66804 3.11087,-0.31103 0.0922,0.86411 -3.11087,0.31103 0.0694,0.66804 3.35282,-0.33444 0.10367,1.0024 -4.63173,0.46069 z m 0,0"
           id="path12916" />
        <path
           style="fill:#14a335;fill-opacity:1;fill-rule:nonzero;stroke:none;stroke-width:2.94956"
           d="m 130.29464,156.86306 1.98174,0.12708 2.21216,3.203 h 0.0117 l 0.20735,-3.04171 1.27891,0.092 -0.2765,4.1824 -1.99326,-0.13795 -2.20065,-3.19155 h -0.0117 l -0.20744,3.03018 -1.27891,-0.0836 z m 0,0"
           id="path12920" />
        <path
           style="fill:#14a335;fill-opacity:1;fill-rule:nonzero;stroke:none;stroke-width:2.94956"
           d="m 139.81158,156.58648 1.35957,0.32273 -1.45174,0.82941 -0.89869,-0.21906 z m -2.59239,0.88718 4.45891,1.07154 -0.23043,0.94479 -3.20303,-0.77172 -0.16128,0.65717 3.04173,0.72573 -0.20743,0.84112 -3.03022,-0.72573 -0.16128,0.65633 3.28369,0.78342 -0.23043,0.97932 -4.53956,-1.08299 z m 0,0"
           id="path12922" />
        <path
           style="fill:#14a335;fill-opacity:1;fill-rule:nonzero;stroke:none;stroke-width:2.94956"
           d="m 142.19658,160.21589 c 0.4724,-1.12915 1.2213,-1.12915 2.29283,-0.67975 l 1.78587,0.74914 c 1.33651,0.56437 1.32499,1.12915 1.00238,1.88958 l -0.046,0.11538 -1.1637,-0.4841 c 0.16129,-0.39129 -0.0343,-0.53008 -0.42632,-0.69145 l -1.27895,-0.54179 c -0.59915,-0.24163 -0.81804,-0.17307 -1.09456,0.4958 l -0.1959,0.4724 c -0.28804,0.66804 -0.18436,0.87573 0.41479,1.12915 l 1.25586,0.53008 c 0.31112,0.12709 0.64522,0.21906 0.79505,-0.16136 l 0.046,-0.11539 -1.46326,-0.61035 0.33411,-0.80683 2.65,1.11761 -0.46086,1.10607 c -0.46086,1.10616 -1.05996,0.9218 -2.39649,0.35702 l -1.41716,-0.59865 c -1.07152,-0.44982 -1.59,-0.99094 -1.1176,-2.12001 z m 0,0"
           id="path12924" />
        <path
           style="fill:#14a335;fill-opacity:1;fill-rule:nonzero;stroke:none;stroke-width:2.94956"
           d="m 149.05201,164.70932 1.37108,0.88718 0.16128,-1.77436 z m 1.35956,-2.15454 1.40565,0.91018 -0.34564,4.77001 -1.19826,-0.78342 0.0694,-0.84103 -2.18914,-1.40565 -0.71436,0.41471 -1.20978,-0.78343 z m 0,0"
           id="path12926" />
        <path
           style="fill:#14a335;fill-opacity:1;fill-rule:nonzero;stroke:none;stroke-width:2.94956"
           d="m 154.32896,165.27385 0.9563,0.85265 -2.06239,2.32736 2.14305,1.91265 -0.71436,0.80684 -3.11087,-2.77676 z m 0,0"
           id="path12928" />
        <path
           style="fill:#14a335;fill-opacity:1;fill-rule:nonzero;stroke:none;stroke-width:2.94956"
           d="m 157.31308,171.73763 1.04849,1.26735 0.67974,-1.64761 z m 1.94718,-1.6477 1.07152,1.30197 -1.77435,4.43591 -0.91022,-1.10616 0.32257,-0.77171 -1.65913,-2.01633 -0.80649,0.18477 -0.92174,-1.10607 z m 0,0"
           id="path12930" />
        <path
           style="fill:#14a335;fill-opacity:1;fill-rule:nonzero;stroke:none;stroke-width:2.94956"
           d="m 162.11764,173.85755 0.70283,1.08308 -3.53718,2.26975 -0.69128,-1.083 z m 0,0"
           id="path12932" />
        <path
           style="fill:#14a335;fill-opacity:1;fill-rule:nonzero;stroke:none;stroke-width:2.94956"
           d="m 160.90786,177.06063 0.56453,1.15214 c -0.40324,0.19565 -0.34564,0.38043 -0.18435,0.70316 l 0.69128,1.41718 c 0.11521,0.25334 0.26496,0.4841 0.55308,0.34531 0.3341,-0.16137 0.28803,-0.31103 -0.44932,-1.79735 -0.84109,-1.73975 -0.73735,-2.03941 0.1959,-2.48873 0.67974,-0.33444 1.23282,-0.53008 1.94716,0.93325 l 0.78351,1.61308 c 0.65675,1.32496 0.26496,1.67061 -0.39171,1.99326 l -0.12675,0.0585 -0.56454,-1.15214 c 0.2765,-0.13795 0.38018,-0.21906 0.11522,-0.74914 l -0.62214,-1.27889 c -0.12675,-0.26505 -0.29957,-0.39213 -0.50693,-0.29933 -0.32256,0.16137 -0.26495,0.31103 0.34565,1.54394 0.87565,1.78582 0.97934,2.25821 -0.12676,2.79975 -1.0139,0.49581 -1.34804,0.23076 -2.09695,-1.30197 l -0.67975,-1.40564 c -0.51846,-1.04847 -0.53,-1.55539 0.28804,-1.95873 z m 0,0"
           id="path12934" />
        <path
           style="fill:#14a335;fill-opacity:1;fill-rule:nonzero;stroke:none;stroke-width:2.94956"
           d="m 166.16177,181.65782 1.325,4.38976 -0.93326,0.27675 -0.9563,-3.15693 -0.64522,0.19564 0.91023,2.99565 -0.82958,0.24163 -0.91021,-2.98419 -0.64522,0.18478 0.97935,3.23761 -0.96783,0.28762 -1.34804,-4.4589 z m 0,0"
           id="path12936" />
      </g>
    </g>
  </g>
</svg>
